# xmcd
#
# Track frame offsets:
#	150
#	13816
#	32074
#	48189
#	65194
#	81975
#	95986
#	112348
#	128376
#	140934
#	155879
#	169014
#	169722
#	170381
#	171217
#	172254
#	173051
#	173784
#	174553
#
# Disc length: 2334 seconds
#
# Revision: 1
# Processed by: cddbd v1.5.2PL0 Copyright (c) Steve Scherf et al.
# Submitted via: audiograbber 1.83.01
#
DISCID=15091c13
DTITLE=Various Artist - CDX Volume 604 (Septemer 15, 2014)
DYEAR=2014
DGENRE=Country
TTITLE0=Railers - Kinda Dig The Feeling
TTITLE1=Josh Turner - Lay Low [Radio Edit]
TTITLE2=Brad Paisley - Perfect Storm [Single Edit]
TTITLE3=Trisha Yearwood (featuring Kelly Clarkson) - Prize Fighter [Radio Edit]
TTITLE4=Dierks Bentley - Say You Do 
TTITLE5=Kelsea Ballerini - Love Me Like You Mean It
TTITLE6=Mike Ryan - Dancing All Around It
TTITLE7=Crab Apple Lane - Hit The Ground Runnin'
TTITLE8=Will Corey - Scattered, Smothered, Covered
TTITLE9=Andy Ross - What We Do For Fun Around Here [Single Version]
TTITLE10=Lo-Fi - When You're Over Me 
TTITLE11=Sarah Dunn Band - Liner - Hometown Country
TTITLE12=Sarah Dunn Band - Liner - Kickin' Country
TTITLE13=Sarah Dunn Band - Liner - More Of The Country You Love
TTITLE14=Sarah Dunn Band - Liner - Our New Single
TTITLE15=Sarah Dunn Band - Liner - Super Country Greatest Hits
TTITLE16=Sarah Dunn Band - Liner - The Best In Country Music
TTITLE17=Sarah Dunn Band - Liner - Today's Best Country
TTITLE18=Sarah Dunn Band - Liner - Hot Country Music
EXTD=
EXTT0=
EXTT1=
EXTT2=
EXTT3=
EXTT4=
EXTT5=
EXTT6=
EXTT7=
EXTT8=
EXTT9=
EXTT10=
EXTT11=
EXTT12=
EXTT13=
EXTT14=
EXTT15=
EXTT16=
EXTT17=
EXTT18=
PLAYORDER=
